Coordinates
version=1
nRows=6
nColumns=63
inDegrees=yes

Units are S.I. units (second, meters, Newtons, ...)
If the header above contains a line with 'inDegrees', this indicates whether rotational values are in degrees (yes) or radians (no).

endheader
time	pelvis_tilt	pelvis_list	pelvis_rotation	pelvis_tx	pelvis_ty	pelvis_tz	hip_flexion_r	hip_adduction_r	hip_rotation_r	knee_angle_r	knee_angle_r_beta	ankle_angle_r	subtalar_angle_r	mtp_angle_r	hip_flexion_l	hip_adduction_l	hip_rotation_l	knee_angle_l	knee_angle_l_beta	ankle_angle_l	subtalar_angle_l	mtp_angle_l	L5_S1_Flex_Ext	L5_S1_Lat_Bending	L5_S1_axial_rotation	L4_L5_Flex_Ext	L4_L5_Lat_Bending	L4_L5_axial_rotation	L3_L4_Flex_Ext	L3_L4_Lat_Bending	L3_L4_axial_rotation	L2_L3_Flex_Ext	L2_L3_Lat_Bending	L2_L3_axial_rotation	L1_L2_Flex_Ext	L1_L2_Lat_Bending	L1_L2_axial_rotation	L1_T12_Flex_Ext	L1_T12_Lat_Bending	L1_T12_axial_rotation	Abs_r3	Abs_r2	Abs_r1	Abs_t1	Abs_t2	neck_flexion	neck_bending	neck_rotation	arm_flex_r	arm_add_r	arm_rot_r	elbow_flex_r	pro_sup_r	wrist_flex_r	wrist_dev_r	arm_flex_l	arm_add_l	arm_rot_l	elbow_flex_l	pro_sup_l	wrist_flex_l	wrist_dev_l
      0.00800000	    -64.17530694	     -8.55419343	     -5.48939224	     -0.30721916	      1.14333681	      0.02941874	    120.87080741	     -6.62721866	     -9.02178611	     92.30213454	      1.61097615	     24.67957201	     -3.97171353	      0.00000000	     93.30234960	    -10.12721051	      5.69645231	     50.81662011	      0.88691734	      0.49261504	      2.81484278	      0.00000000	     -0.09510025	      2.03253341	      0.98964353	     -0.17661068	      2.70326943	      1.05149625	     -0.15624021	      4.94190173	      1.05149625	     -0.10869008	      4.94190173	      0.86593809	     -0.08831010	      4.14474213	      0.80408536	     -0.05434029	      3.14839425	      0.74223264	     -0.67929161	     22.99242443	      5.50410040	      0.00000000	      0.00000000	      0.00000000	      0.00000000	      0.00000002	     71.67100617	     -9.28840151	      7.26471579	     43.95522636	     69.23197034	      0.00000000	      2.36097671	     62.21244303	     -5.62823479	     -2.50899216	     41.69926024	     67.56119310	      0.00000000	      2.36097671
      0.01700000	    -64.14804079	     -8.44262020	     -4.27314503	     -0.30759741	      1.14375452	      0.02819135	    120.14896560	     -7.23524270	     -8.63071119	     88.69925642	      1.54809407	     24.68482290	     -4.05465867	      0.00000000	     94.44718427	     -9.12502519	      5.70455002	     55.36513694	      0.96630393	      1.43889145	      2.56214186	      0.00000000	     -0.09593633	      1.96485589	      0.80249964	     -0.17816336	      2.61325833	      0.85265586	     -0.15761380	      4.77735060	      0.85265586	     -0.10964563	      4.77735060	      0.70218718	     -0.08908648	      4.00673412	      0.65203096	     -0.05481802	      3.04356177	      0.60187473	     -0.68526362	     22.22684274	      4.46326223	      0.00000000	      0.00000000	      0.00000000	      0.00000000	      0.00000002	     71.47282056	     -9.89474776	      6.97794373	     44.61490906	     69.18962473	      0.00000000	      2.38242289	     62.56022597	     -5.28673308	     -2.43671038	     42.34279988	     67.53863703	      0.00000000	      2.38242289
      0.02500000	    -64.20675668	     -8.53296534	     -4.25202843	     -0.30775161	      1.14412769	      0.02828291	    119.62034363	     -7.08807833	     -8.78392219	     87.08672806	      1.51995014	     25.05737029	     -3.84549081	      0.00000000	     94.92971929	     -9.05737413	      6.08418518	     56.81752047	      0.99165281	      1.96519842	      2.23449363	      0.00000000	     -0.09531955	      1.97074940	      0.82403120	     -0.17701794	      2.62109670	      0.87553315	     -0.15660049	      4.79168008	      0.87553315	     -0.10894071	      4.79168008	      0.72102730	     -0.08851373	      4.01875217	      0.66952535	     -0.05446559	      3.05269082	      0.61802340	     -0.68085802	     22.29351132	      4.58301433	      0.00000000	      0.00000000	      0.00000000	      0.00000000	      0.00000002	     71.30237531	     -9.99948842	      6.59243322	     45.08185874	     68.50660054	      0.00000000	      2.54899490	     62.59231609	     -5.14050088	     -2.44195067	     42.48637288	     66.91596335	      0.00000000	      2.54899490
      0.03300000	    -64.16969518	     -8.48530176	     -3.72944520	     -0.30801724	      1.14433000	      0.02787490	    119.10909901	     -7.27580691	     -8.49112475	     85.46945347	      1.49172337	     24.89908318	     -3.72640396	      0.00000000	     95.41760134	     -8.47437771	      6.37228516	     58.52325793	      1.02142354	      2.43089373	      2.05563956	      0.00000000	     -0.09516803	      1.95830537	      0.74313164	     -0.17673654	      2.60454615	      0.78957737	     -0.15635155	      4.76142369	      0.78957737	     -0.10876754	      4.76142369	      0.65024019	     -0.08837303	      3.99337632	      0.60379446	     -0.05437901	      3.03341503	      0.55734873	     -0.67977569	     22.15274206	      4.13307526	      0.00000000	      0.00000000	      0.00000000	      0.00000000	      0.00000002	     71.22715397	    -10.01721231	      6.47175728	     45.26464234	     68.49424923	      0.00000000	      2.56789463	     62.68772685	     -5.12755372	     -2.47425802	     42.52146487	     66.90524662	      0.00000000	      2.56789463
      0.04200000	    -64.12347513	     -8.44476958	     -3.15059781	     -0.30835032	      1.14468324	      0.02744366	    118.43800103	     -7.49260115	     -8.22086781	     83.52446329	      1.45777689	     24.70383330	     -3.55917929	      0.00000000	     95.97994778	     -7.82515838	      6.66766568	     60.43014494	      1.05470500	      2.94053404	      1.82399423	      0.00000000	     -0.09839330	      1.94630948	      0.65518566	     -0.18272620	      2.58859161	      0.69613476	     -0.16165035	      4.73225687	      0.69613476	     -0.11245370	      4.73225687	      0.57328745	     -0.09136802	      3.96891429	      0.53233835	     -0.05622193	      3.01483338	      0.49138924	     -0.70281350	     22.01704209	      3.64394607	      0.00000000	      0.00000000	      0.00000000	      0.00000000	      0.00000002	     71.17019142	    -10.03292993	      6.34227534	     45.44069729	     68.47967454	      0.00000000	      2.58187697	     62.81291103	     -5.11816624	     -2.50178813	     42.54596864	     66.89702328	      0.00000000	      2.58187697
      0.05000000	    -64.16266697	     -8.73130583	     -2.96463901	     -0.30858479	      1.14507638	      0.02723139	    117.47728861	     -7.52633542	     -8.52887360	     81.08737655	      1.41524170	     25.00003126	     -3.01556175	      0.00000000	     96.82906104	     -7.50599872	      7.35363782	     62.72064875	      1.09468183	      3.53145640	      1.29528388	      0.00000000	     -0.09527015	      1.98084655	      0.64988477	     -0.17692620	      2.63452592	      0.69050257	     -0.15651933	      4.81623031	      0.69050257	     -0.10888425	      4.81623031	      0.56864917	     -0.08846786	      4.03934229	      0.52803137	     -0.05443736	      3.06833131	      0.48741358	     -0.68050516	     22.40773240	      3.61446411	      0.00000000	      0.00000000	      0.00000000	      0.00000000	      0.00000002	     71.17354763	    -10.07268194	      5.97102944	     45.55806065	     68.45161647	      0.00000000	      2.64046658	     62.83560188	     -4.92900141	     -2.60047418	     42.53698013	     66.86331188	      0.00000000	      2.64046658
